<svg xmlns="http://www.w3.org/2000/svg" xmlns:xlink="http://www.w3.org/1999/xlink" style="isolation: isolate;" width="160" height="380"><rect id="backgroundrect" width="100%" height="100%" x="0" y="0" fill="none" stroke="none"/><defs><clipPath id="_clipPath_T310FET5y9ZtwIHTSNm7GLZTSeluxtEz"><rect width="90" height="380" id="svg_1"/></clipPath></defs><g class="currentLayer" style=""><title>Layer 1</title><g class="" transform="rotate(0.43385592103004456 79.56534576416695,188.77105712890466) "><rect x="-2.201086035656607" y="-2.179534250353734" width="163.53286497782432" height="381.90117379667356" fill="rgb(255,153,0)" id="svg_3" class=""/><path d="M81.74033355746062,20.19183450941983 L81.74033355746062,28.80069096926801 L79.67618539507386,28.80069096926801 L71.16884235256079,21.575723762888302 L71.08344185640573,21.575723762888302 L71.08344185640573,21.575723762888302 Q71.2542428487159,22.847052670395648 71.2542428487159,23.90733092922589 L71.2542428487159,23.90733092922589 L71.2542428487159,28.80069096926801 L69.58257356227591,28.80069096926801 L69.58257356227591,20.19183450941983 L71.62673437449872,20.19183450941983 L80.11227303501474,27.387656626220316 L80.1976735311698,27.387656626220316 L80.1976735311698,27.387656626220316 Q80.17586914917275,27.228866138168012 80.1013708440162,26.365568484769735 L80.1013708440162,26.365568484769735 L80.1013708440162,26.365568484769735 Q80.0268725388596,25.503275834460407 80.04867692085666,25.132429694642056 L80.04867692085666,25.132429694642056 L80.04867692085666,20.19183450941983 L81.74033355746062,20.19183450941983 zM95.82596432755052,25.567596032152476 L95.82596432755052,25.567596032152476 L95.82596432755052,25.567596032152476 Q95.82596432755052,27.14645588487504 94.38869214757878,28.032868609318893 L94.38869214757878,28.032868609318893 L94.38869214757878,28.032868609318893 Q92.95141996760701,28.918276330673816 90.41847759228382,28.918276330673816 L90.41847759228382,28.918276330673816 L90.41847759228382,28.918276330673816 Q88.85219615216286,28.918276330673816 87.6384188876608,28.51225508274262 L87.6384188876608,28.51225508274262 L87.6384188876608,28.51225508274262 Q86.4246416231587,28.106233834811423 85.76505906774817,27.34645149957383 L85.76505906774817,27.34645149957383 L85.76505906774817,27.34645149957383 Q85.10547651233762,26.58666916433623 85.10547651233762,25.567596032152476 L85.10547651233762,25.567596032152476 L85.10547651233762,25.567596032152476 Q85.10547651233762,23.98974118251886 86.53184650131087,23.10935847660863 L86.53184650131087,23.10935847660863 L86.53184650131087,23.10935847660863 Q87.9582164902841,22.228975770698398 90.49297589744037,22.228975770698398 L90.49297589744037,22.228975770698398 L90.49297589744037,22.228975770698398 Q92.94051777660849,22.228975770698398 94.38324105207951,23.130463541476335 L94.38324105207951,23.130463541476335 L94.38324105207951,23.130463541476335 Q95.82596432755052,24.03094630916533 95.82596432755052,25.567596032152476 zM86.93704460008925,25.567596032152476 L86.93704460008925,25.567596032152476 L86.93704460008925,25.567596032152476 Q86.93704460008925,26.804754834635908 87.83102426196803,27.451976823912386 L87.83102426196803,27.451976823912386 L87.83102426196803,27.451976823912386 Q88.72500392384677,28.10020381627779 90.46026932444482,28.10020381627779 L90.46026932444482,28.10020381627779 L90.46026932444482,28.10020381627779 Q92.19553472504285,28.10020381627779 93.09496548242087,27.454991833179182 L93.09496548242087,27.454991833179182 L93.09496548242087,27.454991833179182 Q93.99439623979892,26.810784853169544 93.99439623979892,25.567596032152476 L93.99439623979892,25.567596032152476 L93.99439623979892,25.567596032152476 Q93.99439623979892,24.337472251291608 93.09496548242087,23.698290286726653 L93.09496548242087,23.698290286726653 L93.09496548242087,23.698290286726653 Q92.19553472504285,23.05910832216169 90.43846494244777,23.05910832216169 L90.43846494244777,23.05910832216169 L90.43846494244777,23.05910832216169 Q88.70319954184977,23.05910832216169 87.82012207096949,23.689245258926203 L87.82012207096949,23.689245258926203 L87.82012207096949,23.689245258926203 Q86.93704460008925,24.31938219569072 86.93704460008925,25.567596032152476 zM103.85361096612863,28.918276330673816 L103.85361096612863,28.918276330673816 L103.85361096612863,28.918276330673816 Q101.26615763581283,28.918276330673816 99.77074043718227,28.046938652564045 L99.77074043718227,28.046938652564045 L99.77074043718227,28.046938652564045 Q98.27532323855172,27.175600974454262 98.27532323855172,25.626891214399855 L98.27532323855172,25.626891214399855 L98.27532323855172,25.626891214399855 Q98.27532323855172,24.066121417278186 99.66535259086322,23.147548593988287 L99.66535259086322,23.147548593988287 L99.66535259086322,23.147548593988287 Q101.05356491134167,22.228975770698398 103.39571894419073,22.228975770698398 L103.39571894419073,22.228975770698398 L103.39571894419073,22.228975770698398 Q105.58887636672665,22.228975770698398 106.86624974538677,23.026948223315657 L106.86624974538677,23.026948223315657 L106.86624974538677,23.026948223315657 Q108.14544015587997,23.824920675932916 108.14544015587997,25.132429694642056 L108.14544015587997,25.132429694642056 L108.14544015587997,25.750506594339306 L100.10689132630336,25.750506594339306 L100.10689132630336,25.750506594339306 Q100.15958524946288,26.887165087928878 101.144416502996,27.476096898046904 L101.144416502996,27.476096898046904 L101.144416502996,27.476096898046904 Q102.12924775652913,28.065028708164938 103.91720708028667,28.065028708164938 L103.91720708028667,28.065028708164938 L103.91720708028667,28.065028708164938 Q105.80146909119782,28.065028708164938 107.64393936994799,27.62885736756557 L107.64393936994799,27.62885736756557 L107.64393936994799,28.500195045675355 L107.64393936994799,28.500195045675355 Q106.7081679759082,28.724310734508663 105.87233333268821,28.82179603413571 L105.87233333268821,28.82179603413571 L105.87233333268821,28.82179603413571 Q105.03649868946823,28.918276330673816 103.85361096612863,28.918276330673816 zM103.37573159402676,23.04805328818336 L103.37573159402676,23.04805328818336 L103.37573159402676,23.04805328818336 Q101.96934895521747,23.04805328818336 101.13351431199747,23.55356984191949 L101.13351431199747,23.55356984191949 L101.13351431199747,23.55356984191949 Q100.29767966877748,24.06009139874456 100.14868305846437,24.95554915098886 L100.14868305846437,24.95554915098886 L106.25027595397029,24.95554915098886 L106.25027595397029,24.95554915098886 Q106.25027595397029,24.03094630916533 105.50347587057155,23.53949979867435 L105.50347587057155,23.53949979867435 L105.50347587057155,23.53949979867435 Q104.75849281900594,23.04805328818336 103.37573159402676,23.04805328818336 zM118.68422478778419,27.039925557447543 L118.68422478778419,27.039925557447543 L118.68422478778419,27.039925557447543 Q118.68422478778419,27.941413328225487 117.47044752328215,28.429844829449646 L117.47044752328215,28.429844829449646 L117.47044752328215,28.429844829449646 Q116.25667025878005,28.918276330673816 114.06351283624412,28.918276330673816 L114.06351283624412,28.918276330673816 L114.06351283624412,28.918276330673816 Q111.74316318539212,28.918276330673816 110.44398542473495,28.51225508274262 L110.44398542473495,28.51225508274262 L110.44398542473495,27.605742296519992 L110.44398542473495,27.605742296519992 Q111.2852711634542,27.840913019331616 112.24829803499027,27.976588436338343 L112.24829803499027,27.976588436338343 L112.24829803499027,27.976588436338343 Q113.21314193835943,28.112263853345038 114.10712160023823,28.112263853345038 L114.10712160023823,28.112263853345038 L114.10712160023823,28.112263853345038 Q115.48988282521736,28.112263853345038 116.23668290861609,27.867043099644025 L116.23668290861609,27.867043099644025 L116.23668290861609,27.867043099644025 Q116.98166596018174,27.622827349031937 116.98166596018174,27.122335810740516 L116.98166596018174,27.122335810740516 L116.98166596018174,27.122335810740516 Q116.98166596018174,26.745459652388526 116.39113061442848,26.478128830730864 L116.39113061442848,26.478128830730864 L116.39113061442848,26.478128830730864 Q115.79877823684217,26.20979300598425 114.08531721824119,25.84497688469953 L114.08531721824119,25.84497688469953 L114.08531721824119,25.84497688469953 Q112.45725669579525,25.509305852994036 111.7704186628884,25.25906008384832 L111.7704186628884,25.25906008384832 L111.7704186628884,25.25906008384832 Q111.08358062998155,25.008814314702605 110.74742974086045,24.690228335509065 L110.74742974086045,24.690228335509065 L110.74742974086045,24.690228335509065 Q110.41309588357245,24.372647359404464 110.41309588357245,23.930446000271473 L110.41309588357245,23.930446000271473 L110.41309588357245,23.930446000271473 Q110.41309588357245,23.141518575454665 111.57236219308194,22.68524717307653 L111.57236219308194,22.68524717307653 L111.57236219308194,22.68524717307653 Q112.73344553442448,22.228975770698398 114.75580196465025,22.228975770698398 L114.75580196465025,22.228975770698398 L114.75580196465025,22.228975770698398 Q116.64006397556139,22.228975770698398 118.44074252215053,22.653087074230495 L118.44074252215053,22.653087074230495 L117.81204950790246,23.448044517580936 L117.81204950790246,23.448044517580936 Q116.05497972530739,23.04805328818336 114.62860973633414,23.04805328818336 L114.62860973633414,23.04805328818336 L114.62860973633414,23.04805328818336 Q113.371223707838,23.04805328818336 112.73344553442448,23.265133955394113 L112.73344553442448,23.265133955394113 L112.73344553442448,23.265133955394113 Q112.0938503291779,23.48321962569379 112.0938503291779,23.8661258025794 L112.0938503291779,23.8661258025794 L112.0938503291779,23.8661258025794 Q112.0938503291779,24.125416599525565 112.33369853114534,24.307322158623453 L112.33369853114534,24.307322158623453 L112.33369853114534,24.307322158623453 Q112.57354673311283,24.490232720810283 113.1059370602073,24.65505322739621 L113.1059370602073,24.65505322739621 L113.1059370602073,24.65505322739621 Q113.63832738730177,24.819873733982146 115.15009787243011,25.132429694642056 L115.15009787243011,25.132429694642056 L115.15009787243011,25.132429694642056 Q117.22696525764852,25.550510979640514 117.95559502271634,25.97462228317261 L117.95559502271634,25.97462228317261 L117.95559502271634,25.97462228317261 Q118.68422478778419,26.39873358670471 118.68422478778419,27.039925557447543 zM123.69923264710417,20.19183450941983 L123.15594012901113,26.42787867628393 L122.03846555166268,26.42787867628393 L121.4951730335697,20.19183450941983 L123.69923264710417,20.19183450941983 zM121.30438469109559,28.176584051037118 L121.30438469109559,28.176584051037118 L121.30438469109559,28.176584051037118 Q121.30438469109559,27.37559658915305 122.5817580697557,27.37559658915305 L122.5817580697557,27.37559658915305 L122.5817580697557,27.37559658915305 Q123.19954889300526,27.37559658915305 123.53388275029323,27.581622222385466 L123.53388275029323,27.581622222385466 L123.53388275029323,27.581622222385466 Q123.87003363941433,27.787647855617873 123.87003363941433,28.176584051037118 L123.87003363941433,28.176584051037118 L123.87003363941433,28.176584051037118 Q123.87003363941433,28.553460209389097 123.52843165479398,28.76250085188833 L123.52843165479398,28.76250085188833 L123.52843165479398,28.76250085188833 Q123.18864670200671,28.971541494387562 122.5817580697557,28.971541494387562 L122.5817580697557,28.971541494387562 L122.5817580697557,28.971541494387562 Q122.02756336066416,28.971541494387562 121.66597402587989,28.786620926022856 L121.66597402587989,28.786620926022856 L121.66597402587989,28.786620926022856 Q121.30438469109559,28.600695354569215 121.30438469109559,28.176584051037118 zM47.06409805482949,24.48420270227665 L47.06409805482949,24.48420270227665 L47.06409805482949,24.48420270227665 Q47.06409805482949,26.551494056223376 45.174384948419096,27.735387694993072 L45.174384948419096,27.735387694993072 L45.174384948419096,27.735387694993072 Q43.28467184200868,28.918276330673816 39.921345918964754,28.918276330673816 L39.921345918964754,28.918276330673816 L39.921345918964754,28.918276330673816 Q36.4817046589312,28.918276330673816 34.613795934517825,27.755487756771846 L34.613795934517825,27.755487756771846 L34.613795934517825,27.755487756771846 Q32.74407017827134,26.59269918286987 32.74407017827134,24.473147668298328 L32.74407017827134,24.473147668298328 L32.74407017827134,24.473147668298328 Q32.74407017827134,22.370681206238743 34.61924703001707,21.212917647781456 L34.61924703001707,21.212917647781456 L34.61924703001707,21.212917647781456 Q36.49260684992973,20.05615909241311 39.94133326912871,20.05615909241311 L39.94133326912871,20.05615909241311 L39.94133326912871,20.05615909241311 Q43.29557403300721,20.05615909241311 45.17983604391835,21.234022712649168 L45.17983604391835,21.234022712649168 L45.17983604391835,21.234022712649168 Q47.06409805482949,22.411886332885235 47.06409805482949,24.48420270227665 zM34.661038762178066,24.48420270227665 L34.661038762178066,24.48420270227665 L34.661038762178066,24.48420270227665 Q34.661038762178066,26.23290807702984 36.00745935049551,27.137410857074595 L36.00745935049551,27.137410857074595 L36.00745935049551,27.137410857074595 Q37.355696970645994,28.040908634030412 39.921345918964754,28.040908634030412 L39.921345918964754,28.040908634030412 L39.921345918964754,28.040908634030412 Q42.50698221744749,28.040908634030412 43.82796436010168,27.140425866341403 L43.82796436010168,27.140425866341403 L43.82796436010168,27.140425866341403 Q45.14894650275587,26.238938095563473 45.14894650275587,24.48420270227665 L45.14894650275587,24.48420270227665 L45.14894650275587,24.48420270227665 Q45.14894650275587,22.74755736459073 43.83341545560094,21.849084603079607 L43.83341545560094,21.849084603079607 L43.83341545560094,21.849084603079607 Q42.517884408445994,20.951616844657426 39.94133326912871,20.951616844657426 L39.94133326912871,20.951616844657426 L39.94133326912871,20.951616844657426 Q37.355696970645994,20.951616844657426 36.00745935049551,21.85511462161323 L36.00745935049551,21.85511462161323 L36.00745935049551,21.85511462161323 Q34.661038762178066,22.758612398569046 34.661038762178066,24.48420270227665 zM60.02135205657245,28.80069096926801 L58.25338008297886,28.80069096926801 L58.25338008297886,24.625908137816996 L58.25338008297886,24.625908137816996 Q58.25338008297886,23.836980713000177 57.604699718566835,23.448044517580936 L57.604699718566835,23.448044517580936 L57.604699718566835,23.448044517580936 Q56.95601935415478,23.05910832216169 55.571441097342564,23.05910832216169 L55.571441097342564,23.05910832216169 L55.571441097342564,23.05910832216169 Q53.72897081859237,23.05910832216169 52.88223398437388,23.612865024166872 L52.88223398437388,23.612865024166872 L52.88223398437388,23.612865024166872 Q52.03731418198844,24.166621726172043 52.03731418198844,25.426895599701073 L52.03731418198844,25.426895599701073 L52.03731418198844,28.80069096926801 L50.26934220839486,28.80069096926801 L50.26934220839486,19.63807780741465 L52.03731418198844,19.63807780741465 L52.03731418198844,22.411886332885235 L52.03731418198844,22.411886332885235 Q52.03731418198844,22.91237787117666 51.951913685833354,23.24201888434852 L51.951913685833354,23.24201888434852 L52.05730153215241,23.24201888434852 L52.05730153215241,23.24201888434852 Q52.57878966824837,22.776702454169946 53.54363357161753,22.50836662942333 L53.54363357161753,22.50836662942333 L53.54363357161753,22.50836662942333 Q54.5066604431536,22.241035807765662 55.74224208965272,22.241035807765662 L55.74224208965272,22.241035807765662 L55.74224208965272,22.241035807765662 Q57.880888557196045,22.241035807765662 58.95112030688425,22.80283253448235 L58.95112030688425,22.80283253448235 L58.95112030688425,22.80283253448235 Q60.02135205657245,23.365634264287973 60.02135205657245,24.59073302970414 L60.02135205657245,24.59073302970414 L60.02135205657245,28.80069096926801 z" fill-rule="evenodd" fill="rgb(255,255,255)" id="svg_4" class=""/></g></g></svg>