<?xml version="1.0" standalone="no"?><!-- Generator: Gravit.io --><svg xmlns="http://www.w3.org/2000/svg" xmlns:xlink="http://www.w3.org/1999/xlink" style="isolation:isolate" viewBox="0 0 90 380" width="90" height="380"><defs><clipPath id="_clipPath_T310FET5y9ZtwIHTSNm7GLZTSeluxtEz"><rect width="90" height="380"/></clipPath></defs><g clip-path="url(#_clipPath_T310FET5y9ZtwIHTSNm7GLZTSeluxtEz)"><rect x="0" y="0" width="90" height="380" transform="matrix(1,0,0,1,0,0)" fill="rgb(255,153,0)"/><path d=" M 46.197 22.26 L 46.197 30.826 L 45.061 30.826 L 40.379 23.637 L 40.332 23.637 L 40.332 23.637 Q 40.426 24.902 40.426 25.957 L 40.426 25.957 L 40.426 30.826 L 39.506 30.826 L 39.506 22.26 L 40.631 22.26 L 45.301 29.42 L 45.348 29.42 L 45.348 29.42 Q 45.336 29.262 45.295 28.403 L 45.295 28.403 L 45.295 28.403 Q 45.254 27.545 45.266 27.176 L 45.266 27.176 L 45.266 22.26 L 46.197 22.26 Z  M 53.949 27.609 L 53.949 27.609 L 53.949 27.609 Q 53.949 29.18 53.158 30.062 L 53.158 30.062 L 53.158 30.062 Q 52.367 30.943 50.973 30.943 L 50.973 30.943 L 50.973 30.943 Q 50.111 30.943 49.443 30.539 L 49.443 30.539 L 49.443 30.539 Q 48.775 30.135 48.412 29.379 L 48.412 29.379 L 48.412 29.379 Q 48.049 28.623 48.049 27.609 L 48.049 27.609 L 48.049 27.609 Q 48.049 26.039 48.834 25.163 L 48.834 25.163 L 48.834 25.163 Q 49.619 24.287 51.014 24.287 L 51.014 24.287 L 51.014 24.287 Q 52.361 24.287 53.155 25.184 L 53.155 25.184 L 53.155 25.184 Q 53.949 26.08 53.949 27.609 Z  M 49.057 27.609 L 49.057 27.609 L 49.057 27.609 Q 49.057 28.84 49.549 29.484 L 49.549 29.484 L 49.549 29.484 Q 50.041 30.129 50.996 30.129 L 50.996 30.129 L 50.996 30.129 Q 51.951 30.129 52.446 29.487 L 52.446 29.487 L 52.446 29.487 Q 52.941 28.846 52.941 27.609 L 52.941 27.609 L 52.941 27.609 Q 52.941 26.385 52.446 25.749 L 52.446 25.749 L 52.446 25.749 Q 51.951 25.113 50.984 25.113 L 50.984 25.113 L 50.984 25.113 Q 50.029 25.113 49.543 25.74 L 49.543 25.74 L 49.543 25.74 Q 49.057 26.367 49.057 27.609 Z  M 58.367 30.943 L 58.367 30.943 L 58.367 30.943 Q 56.943 30.943 56.12 30.076 L 56.12 30.076 L 56.12 30.076 Q 55.297 29.209 55.297 27.668 L 55.297 27.668 L 55.297 27.668 Q 55.297 26.115 56.062 25.201 L 56.062 25.201 L 56.062 25.201 Q 56.826 24.287 58.115 24.287 L 58.115 24.287 L 58.115 24.287 Q 59.322 24.287 60.025 25.081 L 60.025 25.081 L 60.025 25.081 Q 60.729 25.875 60.729 27.176 L 60.729 27.176 L 60.729 27.791 L 56.305 27.791 L 56.305 27.791 Q 56.334 28.922 56.876 29.508 L 56.876 29.508 L 56.876 29.508 Q 57.418 30.094 58.402 30.094 L 58.402 30.094 L 58.402 30.094 Q 59.439 30.094 60.453 29.66 L 60.453 29.66 L 60.453 30.527 L 60.453 30.527 Q 59.938 30.75 59.478 30.847 L 59.478 30.847 L 59.478 30.847 Q 59.018 30.943 58.367 30.943 Z  M 58.104 25.102 L 58.104 25.102 L 58.104 25.102 Q 57.33 25.102 56.87 25.605 L 56.87 25.605 L 56.87 25.605 Q 56.41 26.109 56.328 27 L 56.328 27 L 59.686 27 L 59.686 27 Q 59.686 26.08 59.275 25.591 L 59.275 25.591 L 59.275 25.591 Q 58.865 25.102 58.104 25.102 Z  M 66.529 29.074 L 66.529 29.074 L 66.529 29.074 Q 66.529 29.971 65.861 30.457 L 65.861 30.457 L 65.861 30.457 Q 65.193 30.943 63.986 30.943 L 63.986 30.943 L 63.986 30.943 Q 62.709 30.943 61.994 30.539 L 61.994 30.539 L 61.994 29.637 L 61.994 29.637 Q 62.457 29.871 62.987 30.006 L 62.987 30.006 L 62.987 30.006 Q 63.518 30.141 64.01 30.141 L 64.01 30.141 L 64.01 30.141 Q 64.771 30.141 65.182 29.897 L 65.182 29.897 L 65.182 29.897 Q 65.592 29.654 65.592 29.156 L 65.592 29.156 L 65.592 29.156 Q 65.592 28.781 65.267 28.515 L 65.267 28.515 L 65.267 28.515 Q 64.941 28.248 63.998 27.885 L 63.998 27.885 L 63.998 27.885 Q 63.102 27.551 62.724 27.302 L 62.724 27.302 L 62.724 27.302 Q 62.346 27.053 62.161 26.736 L 62.161 26.736 L 62.161 26.736 Q 61.977 26.42 61.977 25.98 L 61.977 25.98 L 61.977 25.98 Q 61.977 25.195 62.615 24.741 L 62.615 24.741 L 62.615 24.741 Q 63.254 24.287 64.367 24.287 L 64.367 24.287 L 64.367 24.287 Q 65.404 24.287 66.395 24.709 L 66.395 24.709 L 66.049 25.5 L 66.049 25.5 Q 65.082 25.102 64.297 25.102 L 64.297 25.102 L 64.297 25.102 Q 63.605 25.102 63.254 25.318 L 63.254 25.318 L 63.254 25.318 Q 62.902 25.535 62.902 25.916 L 62.902 25.916 L 62.902 25.916 Q 62.902 26.174 63.034 26.355 L 63.034 26.355 L 63.034 26.355 Q 63.166 26.537 63.459 26.701 L 63.459 26.701 L 63.459 26.701 Q 63.752 26.865 64.584 27.176 L 64.584 27.176 L 64.584 27.176 Q 65.727 27.592 66.128 28.014 L 66.128 28.014 L 66.128 28.014 Q 66.529 28.436 66.529 29.074 Z  M 69.289 22.26 L 68.99 28.465 L 68.375 28.465 L 68.076 22.26 L 69.289 22.26 Z  M 67.971 30.205 L 67.971 30.205 L 67.971 30.205 Q 67.971 29.408 68.674 29.408 L 68.674 29.408 L 68.674 29.408 Q 69.014 29.408 69.198 29.613 L 69.198 29.613 L 69.198 29.613 Q 69.383 29.818 69.383 30.205 L 69.383 30.205 L 69.383 30.205 Q 69.383 30.58 69.195 30.788 L 69.195 30.788 L 69.195 30.788 Q 69.008 30.996 68.674 30.996 L 68.674 30.996 L 68.674 30.996 Q 68.369 30.996 68.17 30.812 L 68.17 30.812 L 68.17 30.812 Q 67.971 30.627 67.971 30.205 Z  M 27.113 26.531 L 27.113 26.531 L 27.113 26.531 Q 27.113 28.588 26.073 29.766 L 26.073 29.766 L 26.073 29.766 Q 25.033 30.943 23.182 30.943 L 23.182 30.943 L 23.182 30.943 Q 21.289 30.943 20.261 29.786 L 20.261 29.786 L 20.261 29.786 Q 19.232 28.629 19.232 26.52 L 19.232 26.52 L 19.232 26.52 Q 19.232 24.428 20.264 23.276 L 20.264 23.276 L 20.264 23.276 Q 21.295 22.125 23.193 22.125 L 23.193 22.125 L 23.193 22.125 Q 25.039 22.125 26.076 23.297 L 26.076 23.297 L 26.076 23.297 Q 27.113 24.469 27.113 26.531 Z  M 20.287 26.531 L 20.287 26.531 L 20.287 26.531 Q 20.287 28.271 21.028 29.171 L 21.028 29.171 L 21.028 29.171 Q 21.77 30.07 23.182 30.07 L 23.182 30.07 L 23.182 30.07 Q 24.605 30.07 25.332 29.174 L 25.332 29.174 L 25.332 29.174 Q 26.059 28.277 26.059 26.531 L 26.059 26.531 L 26.059 26.531 Q 26.059 24.803 25.335 23.909 L 25.335 23.909 L 25.335 23.909 Q 24.611 23.016 23.193 23.016 L 23.193 23.016 L 23.193 23.016 Q 21.77 23.016 21.028 23.915 L 21.028 23.915 L 21.028 23.915 Q 20.287 24.814 20.287 26.531 Z  M 34.244 30.826 L 33.271 30.826 L 33.271 26.672 L 33.271 26.672 Q 33.271 25.887 32.914 25.5 L 32.914 25.5 L 32.914 25.5 Q 32.557 25.113 31.795 25.113 L 31.795 25.113 L 31.795 25.113 Q 30.781 25.113 30.315 25.664 L 30.315 25.664 L 30.315 25.664 Q 29.85 26.215 29.85 27.469 L 29.85 27.469 L 29.85 30.826 L 28.877 30.826 L 28.877 21.709 L 29.85 21.709 L 29.85 24.469 L 29.85 24.469 Q 29.85 24.967 29.803 25.295 L 29.803 25.295 L 29.861 25.295 L 29.861 25.295 Q 30.148 24.832 30.679 24.565 L 30.679 24.565 L 30.679 24.565 Q 31.209 24.299 31.889 24.299 L 31.889 24.299 L 31.889 24.299 Q 33.066 24.299 33.655 24.858 L 33.655 24.858 L 33.655 24.858 Q 34.244 25.418 34.244 26.637 L 34.244 26.637 L 34.244 30.826 Z " fill-rule="evenodd" fill="rgb(255,255,255)"/></g></svg>